<?xml version="1.0" encoding="utf-8"?>
<!-- Generator: Adobe Illustrator 27.4.0, SVG Export Plug-In . SVG Version: 6.00 Build 0)  -->
<svg version="1.1" id="Layer_1" xmlns="http://www.w3.org/2000/svg" xmlns:xlink="http://www.w3.org/1999/xlink" x="0px" y="0px"
	 viewBox="0 0 305 1080" style="enable-background:new 0 0 305 1080;" xml:space="preserve">
<style type="text/css">
	.st0{fill:none;stroke:#000000;stroke-width:0.75;stroke-miterlimit:10;}
</style>
<path class="st0" d="M13.9,1071.4c0,0,1.4-167.1,30.6-281s83.3-237,83.3-296.3S70.9,310.8,70.9,236.3s63-106,63-215.7"/>
<path class="st0" d="M22.9,1071.4c0,0,1.6-167.9,29.5-280.5S132.7,554.3,130,494c-2.8-63.6-54-183.5-53.6-258.4
	c0.4-74.4,60.8-106.2,59.5-215.5"/>
<path class="st0" d="M31.8,1071.4c0,0,1.8-168.6,28.5-279.9s77-236.4,71.8-297.6C126.4,426,81,310.3,81.9,235
	c0.7-74.2,58.5-106.3,56.1-215.3"/>
<path class="st0" d="M40.8,1071.4c0,0,1.9-169.4,27.4-279.4s73.6-236.2,66.1-298.2c-8.8-72.4-48.2-183.8-46.9-259.4
	c1.1-74,56.3-106.4,52.7-215.1"/>
<path class="st0" d="M49.7,1071.4c0,0,2.1-170.1,26.4-278.9s70.1-236,60.3-298.9c-11.9-76.8-45.2-183.9-43.6-259.9
	c1.6-73.8,54.1-106.5,49.3-214.9"/>
<path class="st0" d="M58.6,1071.4c0,0,2.3-170.9,25.4-278.4s66.4-235.7,54.6-299.5c-15.1-81.3-42.2-184.1-40.2-260.5
	c1.9-73.6,51.9-106.7,45.9-214.7"/>
<path class="st0" d="M67.6,1071.4c0,0,2.5-171.7,24.3-277.8c21.8-106.2,62.7-235.5,48.8-300.2c-18.4-85.8-39.3-184.2-36.9-261
	c2.3-73.4,49.7-106.8,42.4-214.5"/>
<path class="st0" d="M76.5,1071.4c0,0,2.7-172.4,23.3-277.3s58.9-235.3,43.1-300.8c-21.8-90.3-36.4-184.4-33.5-261.5
	c2.7-73.2,47.5-106.9,39-214.3"/>
<path class="st0" d="M85.5,1071.4c0,0,2.9-173.2,22.2-276.8s55-235,37.3-301.4c-25.2-94.7-33.4-184.5-30.2-262
	c3.1-73.1,45.3-107.1,35.6-214.1"/>
<path class="st0" d="M94.4,1071.4c0,0,3.1-174,21.2-276.3s51.1-234.7,31.6-302.1c-28.7-99.2-30.5-184.7-26.8-262.5
	c3.4-72.9,43.1-107.2,32.2-213.9"/>
<path class="st0" d="M103.3,1071.4c0,0,3.3-174.7,20.2-275.8c16.9-101,47.1-234.5,25.8-302.7c-32.3-103.6-27.6-184.8-23.5-263.1
	c3.8-72.7,40.9-107.3,28.8-213.7"/>
<path class="st0" d="M112.3,1071.4c0,0,3.4-175.5,19.1-275.2s43.1-234.2,20.1-303.4c-36-108-24.7-185-20.2-263.6
	c4.2-72.5,38.6-107.5,25.4-213.5"/>
<path class="st0" d="M121.2,1071.4c0,0,3.6-176.2,18.1-274.7c14.5-98.5,39.1-233.9,14.3-304c-39.7-112.4-21.7-185.1-16.8-264.1
	c4.5-72.3,36.4-107.6,21.9-213.3"/>
<path class="st0" d="M130.2,1071.4c0,0,3.8-177,17.1-274.2s35.1-233.5,8.6-304.6C112.3,375.9,137,307.3,142.3,228
	c4.9-72.1,34.2-107.7,18.5-213.1"/>
<path class="st0" d="M139.1,1071.4c0,0,4-177.8,16-273.7c12-95.9,31-233.2,2.8-305.3c-47.3-121-15.9-185.4-10.1-265.1
	c5.2-71.9,32-107.9,15.1-212.9"/>
<path class="st0" d="M148,1071.4c0,0,4.2-178.5,15-273.1s26.9-232.9-2.9-305.9c-51.1-125.3-13-185.5-6.8-265.6
	c5.6-71.7,29.8-108,11.7-212.7"/>
<path class="st0" d="M157,1071.4c0,0,4.4-179.3,13.9-272.6s22.8-232.5-8.7-306.6c-55-129.6-10.1-185.7-3.4-266.2
	c5.9-71.6,27.6-108.1,8.3-212.5"/>
<path class="st0" d="M165.9,1071.4c0,0,4.6-180,12.9-272.1s18.7-232.1-14.4-307.2c-59-133.9-7.2-185.8-0.1-266.7
	c6.3-71.4,25.4-108.3,4.8-212.3"/>
<path class="st0" d="M174.8,1071.4c0,0,4.7-180.8,11.9-271.6s14.5-231.8-20.2-307.9c-62.9-138.1-4.3-186,3.3-267.2
	c6.6-71.2,23.2-108.4,1.4-212.1"/>
<path class="st0" d="M183.8,1071.4c0,0,4.9-181.6,10.8-271.1S205,569,168.7,491.9c-66.9-142.3-1.4-186.1,6.6-267.7
	c7-71,21-108.5-2-211.9"/>
<path class="st0" d="M192.7,1071.4c0,0,5.1-182.3,9.8-270.5c4.7-88.2,6.2-231-31.7-309.1c-70.9-146.5,1.5-186.3,9.9-268.2
	c7.3-70.8,18.8-108.6-5.4-211.7"/>
<path class="st0" d="M201.7,1071.4c0,0,5.3-183.1,8.8-270s2-230.5-37.4-309.8c-75-150.6,4.4-186.4,13.3-268.7
	c7.6-70.6,16.5-108.8-8.8-211.5"/>
<path class="st0" d="M210.6,1071.4c0,0,5.5-183.9,7.7-269.5s-2.1-230.1-43.2-310.4c-79.1-154.8,7.3-186.6,16.6-269.3
	c8-70.4,14.3-108.9-12.3-211.3"/>
<path class="st0" d="M219.5,1071.4c0,0,5.7-184.6,6.7-269s-6.3-229.7-48.9-311.1c-83.2-158.9,10.2-186.7,20-269.8
	c8.3-70.3,12.1-109-15.7-211.1"/>
<path class="st0" d="M228.5,1071.4c0,0,5.9-185.4,5.6-268.4s-10.5-229.2-54.7-311.7c-87.3-163,13-186.9,23.3-270.3
	c8.6-70.1,9.9-109.2-19.1-210.8"/>
<path class="st0" d="M237.4,1071.4c0,0,6-186.1,4.6-267.9s-14.7-228.8-60.4-312.4c-91.4-167,15.9-187,26.7-270.8
	c9-69.9,7.7-109.3-22.5-210.6"/>
<path class="st0" d="M246.4,1071.4c0,0,6.2-186.9,3.6-267.4s-18.8-228.3-66.2-313c-95.6-171.1,18.8-187.2,30-271.3
	c9.3-69.7,5.5-109.4-25.9-210.4"/>
<path class="st0" d="M255.3,1071.4c0,0,6.4-187.7,2.5-266.9c-3.9-79.2-23-227.9-71.9-313.6c-99.8-175.1,21.5-187.4,33.4-271.9
	c9.5-69.6,3.3-109.6-29.4-210.2"/>
<path class="st0" d="M264.2,1071.4c0,0,6.6-188.4,1.5-266.4s-27.2-227.4-77.7-314.3c-104-179.1,24.4-187.5,36.7-272.4
	c9.8-69.4,1.1-109.7-32.8-210"/>
<path class="st0" d="M273.2,1071.4c0,0,6.8-189.2,0.4-265.8s-31.4-226.9-83.4-314.9C82,307.5,217.5,303,230.3,217.8
	C240.4,148.6,229.1,108,194.1,8"/>
<path class="st0" d="M282.1,1071.4c0,0,7-189.9-0.6-265.3c-7.6-75.4-35.6-226.4-89.2-315.6C80,303.4,222.6,302.8,235.8,217.2
	c10.5-69-3.4-110-39.6-209.6"/>
<path class="st0" d="M291.1,1071.4c0,0,7.2-190.7-1.6-264.8c-8.8-74.1-39.8-225.9-94.9-316.2c-116.6-191.1,33.1-188,46.7-273.9
	c10.9-68.8-5.6-110.1-43-209.4"/>
</svg>
